<svg xmlns="http://www.w3.org/2000/svg" viewBox="0 0 512 442.64"><defs><style>.cls-1{fill:#010101;}.cls-2{fill:#010102;}</style></defs><g id="Calque_2" data-name="Calque 2"><g id="Calque_1-2" data-name="Calque 1"><path class="cls-1" d="M0,302.8q155.51-89.67,311-179.33c4.42-2.54,6.41-6.07,6.44-11.23.25-35.81,21-64.22,55.34-74.56,20.64-6.21,40.73-3.45,59.53,7.34,4.39,2.52,4.22,6.26-.37,8.93-17.78,10.32-35.53,20.68-53.44,30.76-5.73,3.22-8.3,7.51-8,14,.31,6.13.07,12.28.07,18.42a11.44,11.44,0,0,0,6,10.54c6.62,3.81,13.32,7.49,19.94,11.29,4.25,2.43,7.83.57,11.45-1.5q26.55-15.18,53.09-30.34c2.21-1.27,4.3-3.08,7-1.33s2.05,4.36,2,6.93c-.64,36.78-28.1,68.16-65.28,73.72-16.09,2.4-31.77-.08-45.89-8.17-8-4.56-14.5-4.79-22,.53-6,4.29-12.83,7.54-19.88,11.6l49.23,28.43q70.6,40.75,141.2,81.51c5.27,3.05,5.6,4.38,2.54,9.7q-11.34,19.62-22.7,39.24c-3.91,6.77-4.69,7-11.44,3.1-1.74-1-3.51-2-5.84-3.28-.11,2-.27,3.61-.27,5.2q0,38.88,0,77.77c0,5-1.06,9.2-7,10.07-15.63.68-31.26.1-46.89.3-6.65-.48-8.73-2.63-8.78-9.83-.12-18.92,0-37.85,0-56.77,0-18.42-.11-36.83.08-55.24,0-4.51-1.61-7.18-5.46-9.4q-70-40.42-140.08-80.69c-3.44-2-6.42-3-10.39-.67-46.48,26.93-92.93,53.9-139.63,80.44-5.13,2.91-7,6.3-6.95,12.18.25,35.8.13,71.6.12,107.41,0,2.38.18,4.79-.52,7.11-1.21,4-4,5.74-8.13,5.45h-46c-6.12,1.2-9.54-4.4-9.56-9.88,0-10.91,0-21.83,0-32.74,0-14.32,0-28.65,0-43,0-5.15-.07-5.15-4.68-2.79-6.4,3.27-8.39,2.8-12.07-3.33-7-11.7-13.71-23.59-20.61-35.36-1.39-2.38-2.08-5-3.17-7.49Z"/><path class="cls-1" d="M243,147.8c-2.19,2.32-4.94,3.33-7.4,4.75-16.6,9.62-33.26,19.14-49.8,28.87-2.39,1.4-4,1.43-6.39,0-13.48-7.89-27.13-15.49-40.6-23.4-2.49-1.47-3.73-1.47-4.83,1.27-2.13,5.29-6,6.25-11.19,4.64-4.26-1.32-8.18-.4-10.71,3.67s-3,8.35.52,12.2c4.45,4.83,4.5,9.49,1,15.09-6.07,9.62-11.48,19.64-17.25,29.45-3.58,6.1-7.55,7.29-13.61,3.82Q57.1,213.5,31.61,198.54c-6.4-3.76-7.26-7.51-3.55-14,5.55-9.73,11.44-19.29,16.67-29.19,3-5.63,6.88-8,13.14-7,3.16.49,6.42.72,9-2.14,4.16-4.61,4.59-9.53.1-14-4.12-4.12-4.21-7.85-1.48-12.71,14.87-26.52,28.83-53.63,48.68-77,14.68-17.25,31.86-31.11,53.92-38A101.37,101.37,0,0,1,207,.38c2.83.23,7.27-.61,7.58,3.31.28,3.51-4.07,4.16-6.82,5.07a94.49,94.49,0,0,0-30.29,16.32c-15.61,12.72-26.15,29.4-36.24,46.44-1.36,2.29.36,2.46,1.55,3.16,7.18,4.2,14.38,8.37,21.54,12.61C170.54,91,171.62,94,168,100.14c-2.07,3.48-.15,4.25,2.19,5.59q34.24,19.65,68.44,39.4C240,146,241.44,146.84,243,147.8Z"/><path class="cls-2" d="M229.76,349.87c-4.95,0-9.9-.09-14.84,0-4.57.11-6.7-2.46-6.78-6.53-.2-9.88-.17-19.77,0-29.66.07-4.44,2.52-6.84,7.14-6.82,9.72,0,19.44.06,29.16,0,4.76,0,7,2.7,7.11,6.91.25,9.71.23,19.43,0,29.14-.1,4.5-2.39,7.24-7.46,7C239.31,349.7,234.53,349.87,229.76,349.87Z"/><path class="cls-2" d="M282.34,306.89c4.78,0,9.56.14,14.33,0s7,2.48,7.1,6.77q.32,14.83,0,29.67c-.09,4.41-2.48,6.72-7.23,6.63-9.55-.16-19.11-.2-28.66,0-5.06.11-7.41-2.45-7.51-7q-.35-14.58,0-29.16c.12-4.56,2.72-7.1,7.63-6.95S277.56,306.89,282.34,306.89Z"/><path class="cls-2" d="M229.45,402.39c-4.59,0-9.19.12-13.78,0-5.34-.18-7.49-2.22-7.56-7.43q-.21-14.28,0-28.57c.07-4.93,2.38-7.15,7.23-7.19,9.69-.08,19.39,0,29.09,0,4.73,0,7,2.7,7.09,6.89.25,9.86.23,19.73,0,29.59-.09,4.38-2.76,6.75-7.28,6.75h-14.8Z"/><path class="cls-2" d="M303.84,380.91c0,4.59.09,9.18,0,13.77-.13,5.37-2.09,7.57-7.33,7.66q-14.3.26-28.58,0c-5.5-.11-7.51-2.3-7.59-8q-.19-13.51,0-27c.08-6,2.38-8.11,8.47-8.13q13.53,0,27.05,0c5.84,0,7.9,2.08,8,8C303.9,371.73,303.84,376.32,303.84,380.91Z"/></g></g></svg>