<?xml version="1.0" encoding="utf-8"?>
<!-- Generator: Adobe Illustrator 25.4.1, SVG Export Plug-In . SVG Version: 6.00 Build 0)  -->
<svg version="1.1" id="Calque_1" xmlns="http://www.w3.org/2000/svg" xmlns:xlink="http://www.w3.org/1999/xlink" x="0px" y="0px"
	 viewBox="0 0 512 442.6" style="enable-background:new 0 0 512 442.6;" xml:space="preserve">
<style type="text/css">
	.st0{fill:#3C3B4D;}
	.st1{fill:#FFFFFF;}
</style>
<path class="st0" d="M0,302.8C103.7,243,207.3,183.2,311,123.5c4.4-2.5,6.4-6.1,6.4-11.2c0.2-35.8,21-64.2,55.3-74.6
	c20.6-6.2,40.7-3.5,59.5,7.3c4.4,2.5,4.2,6.3-0.4,8.9c-17.8,10.3-35.5,20.7-53.4,30.8c-5.7,3.2-8.3,7.5-8,14
	c0.3,6.1,0.1,12.3,0.1,18.4c-0.2,4.4,2.1,8.5,6,10.5c6.6,3.8,13.3,7.5,19.9,11.3c4.2,2.4,7.8,0.6,11.5-1.5
	c17.7-10.1,35.4-20.2,53.1-30.3c2.2-1.3,4.3-3.1,7-1.3s2,4.4,2,6.9c-0.6,36.8-28.1,68.2-65.3,73.7c-16.1,2.4-31.8-0.1-45.9-8.2
	c-8-4.6-14.5-4.8-22,0.5c-6,4.3-12.8,7.5-19.9,11.6l49.2,28.4c47.1,27.2,94.1,54.3,141.2,81.5c5.3,3,5.6,4.4,2.5,9.7
	c-7.6,13.1-15.1,26.2-22.7,39.2c-3.9,6.8-4.7,7-11.4,3.1c-1.7-1-3.5-2-5.8-3.3c-0.1,2-0.3,3.6-0.3,5.2c0,25.9,0,51.8,0,77.8
	c0,5-1.1,9.2-7,10.1c-15.6,0.7-31.3,0.1-46.9,0.3c-6.6-0.5-8.7-2.6-8.8-9.8c-0.1-18.9,0-37.9,0-56.8c0-18.4-0.1-36.8,0.1-55.2
	c0-4.5-1.6-7.2-5.5-9.4c-46.7-26.9-93.4-53.8-140.1-80.7c-3.4-2-6.4-3-10.4-0.7c-46.5,26.9-92.9,53.9-139.6,80.4
	c-5.1,2.9-7,6.3-6.9,12.2c0.2,35.8,0.1,71.6,0.1,107.4c0,2.4,0.2,4.8-0.5,7.1c-1.2,4-4,5.7-8.1,5.5h-46c-6.1,1.2-9.5-4.4-9.6-9.9
	c0-10.9,0-21.8,0-32.7c0-14.3,0-28.6,0-43c0-5.1-0.1-5.1-4.7-2.8c-6.4,3.3-8.4,2.8-12.1-3.3c-7-11.7-13.7-23.6-20.6-35.4
	c-1.4-2.4-2.1-5-3.2-7.5L0,302.8z"/>
<path class="st1" d="M243,147.8c-2.2,2.3-4.9,3.3-7.4,4.8c-16.6,9.6-33.3,19.1-49.8,28.9c-2.4,1.4-4,1.4-6.4,0
	c-13.5-7.9-27.1-15.5-40.6-23.4c-2.5-1.5-3.7-1.5-4.8,1.3c-2.1,5.3-6,6.2-11.2,4.6c-4.3-1.3-8.2-0.4-10.7,3.7s-3,8.4,0.5,12.2
	c4.4,4.8,4.5,9.5,1,15.1c-6.1,9.6-11.5,19.6-17.2,29.4c-3.6,6.1-7.6,7.3-13.6,3.8c-17.1-9.8-34.1-19.6-51.1-29.6
	c-6.4-3.8-7.3-7.5-3.5-14c5.5-9.7,11.4-19.3,16.7-29.2c3-5.6,6.9-8,13.1-7c3.2,0.5,6.4,0.7,9-2.1c4.2-4.6,4.6-9.5,0.1-14
	c-4.1-4.1-4.2-7.8-1.5-12.7c14.9-26.5,28.8-53.6,48.7-77c14.7-17.2,31.9-31.1,53.9-38c12.6-3.9,25.8-5.3,38.9-4.1
	c2.8,0.2,7.3-0.6,7.6,3.3c0.3,3.5-4.1,4.2-6.8,5.1c-11,3.5-21.3,9.1-30.3,16.3c-15.6,12.7-26.1,29.4-36.2,46.4
	c-1.4,2.3,0.4,2.5,1.6,3.2c7.2,4.2,14.4,8.4,21.5,12.6c6.2,3.7,7.3,6.7,3.7,12.8c-2.1,3.5-0.1,4.2,2.2,5.6
	c22.8,13.1,45.6,26.2,68.4,39.4C240,146,241.4,146.8,243,147.8z"/>
<path class="st1" d="M229.8,349.9c-4.9,0-9.9-0.1-14.8,0c-4.6,0.1-6.7-2.5-6.8-6.5c-0.2-9.9-0.2-19.8,0-29.7
	c0.1-4.4,2.5-6.8,7.1-6.8c9.7,0,19.4,0.1,29.2,0c4.8,0,7,2.7,7.1,6.9c0.2,9.7,0.2,19.4,0,29.1c-0.1,4.5-2.4,7.2-7.5,7
	C239.3,349.7,234.5,349.9,229.8,349.9z"/>
<path class="st1" d="M282.3,306.9c4.8,0,9.6,0.1,14.3,0s7,2.5,7.1,6.8c0.2,9.9,0.2,19.8,0,29.7c-0.1,4.4-2.5,6.7-7.2,6.6
	c-9.5-0.2-19.1-0.2-28.7,0c-5.1,0.1-7.4-2.5-7.5-7c-0.2-9.7-0.2-19.4,0-29.2c0.1-4.6,2.7-7.1,7.6-7S277.6,306.9,282.3,306.9z"/>
<path class="st1" d="M229.4,402.4c-4.6,0-9.2,0.1-13.8,0c-5.3-0.2-7.5-2.2-7.6-7.4c-0.1-9.5-0.1-19,0-28.6c0.1-4.9,2.4-7.1,7.2-7.2
	c9.7-0.1,19.4,0,29.1,0c4.7,0,7,2.7,7.1,6.9c0.2,9.9,0.2,19.7,0,29.6c-0.1,4.4-2.8,6.8-7.3,6.8L229.4,402.4L229.4,402.4z"/>
<path class="st1" d="M303.8,380.9c0,4.6,0.1,9.2,0,13.8c-0.1,5.4-2.1,7.6-7.3,7.7c-9.5,0.2-19.1,0.2-28.6,0c-5.5-0.1-7.5-2.3-7.6-8
	c-0.1-9-0.1-18,0-27c0.1-6,2.4-8.1,8.5-8.1c9,0,18,0,27,0c5.8,0,7.9,2.1,8,8C303.9,371.7,303.8,376.3,303.8,380.9z"/>
</svg>
