<svg viewBox="0 0 100 100" xmlns="http://www.w3.org/2000/svg"><g transform="translate(8.33898 0) scale(1.69491)"><g><path d="M49 50.74v0c-3.2-13.48-16.71-21.82-30.19-18.63C9.57 34.29 2.37 41.5.18 50.73H.17c-.47 1.98-.01 4.06 1.27 5.66h-.001c1.3 1.64 3.28 2.6 5.39 2.6h35.47v0c2.1 0 4.09-.96 5.39-2.61v-.001c1.27-1.59 1.75-3.67 1.29-5.65Z"/><path d="M24.58 26.62v-.001c7.35 0 13.31-5.96 13.31-13.31 0-7.36-5.96-13.31-13.31-13.31 -7.36 0-13.31 5.95-13.31 13.31v0c0 7.34 5.96 13.3 13.31 13.31Z"/></g></g></svg>