<svg viewBox="0 0 100 100" xmlns="http://www.w3.org/2000/svg"><g transform="scale(1.66666)"><g><path d="M49 60H11v0C4.92 60 0 55.07 0 49V11v0C0 4.92 4.92 0 11 0h19v0c1.65 0 3 1.34 3 3 0 1.65-1.35 3-3 3H11v0c-2.77 0-5 2.23-5 5v38 0c0 2.76 2.23 5 5 5h38v0c2.76 0 5-2.24 5-5V30v0c0-1.66 1.34-3 3-3 1.65 0 3 1.34 3 3v19 0c0 6.07-4.93 11-11 11Z"/><path d="M29.79 38.3v0Zm29-29l-8.08-8.09V1.2c-.95-.95-2.48-.96-3.43-.01 -.01 0-.01 0-.01 0l-5.22 5.23 11.51 11.56 5.22-5.23v-.001c.95-.93.98-2.45.06-3.41 -.03-.03-.05-.05-.07-.07ZM20 28.49v-.001c-.31.3-.53.68-.64 1.11l-2.78 10.87v0c-.39 1.27.34 2.61 1.61 3 .45.13.93.13 1.38 0l10.82-2.83v0c.42-.12.8-.34 1.11-.64l18.63-18.63L38.62 9.85Z"/></g></g></svg>