<svg viewBox="0 0 100 100" xmlns="http://www.w3.org/2000/svg"><g transform="translate(1.73728 0) scale(1.69491)"><g><path d="M28.47 7.37v-.001c-14.26 0-25.82 11.56-25.82 25.82 0 14.25 11.56 25.82 25.82 25.81 14.25-.01 25.82-11.57 25.81-25.83 -.001-.01-.01-.01-.01-.01v0c-.02-14.26-11.57-25.8-25.82-25.81Zm8.9 35.48v0c-.7 1.19-2.23 1.6-3.42.92l-6.73-3.89v0c-.77-.46-1.23-1.28-1.22-2.16v-13 0c0-1.39 1.11-2.5 2.5-2.5 1.38 0 2.5 1.11 2.5 2.5v11.55l5.48 3.17v0c1.18.69 1.58 2.21.89 3.4 -.01 0-.01 0-.01 0Z"/><path d="M56.52 12.75v0C52.41 6.67 46.31 2.23 39.28.19v0c-1.33-.38-2.72.39-3.09 1.72 -.38 1.32.39 2.71 1.72 3.09 0 0 0 0 0 0v0c5.9 1.71 11.02 5.45 14.47 10.56v0c.77 1.14 2.33 1.44 3.47.66 1.14-.78 1.44-2.34.66-3.48Z"/><path d="M4.57 15.47l-.001 0c3.47-5.09 8.59-8.83 14.5-10.58v-.001c1.31-.4 2.06-1.79 1.67-3.11 -.4-1.32-1.79-2.07-3.11-1.68l0-.001C10.61 2.17 4.53 6.6.41 12.64H.41c-.78 1.14-.48 2.69.67 3.47l-.001 0c.4.28.89.44 1.4.44H2.48c.82-.01 1.6-.42 2.07-1.1Z"/></g></g></svg>