<svg viewBox="0 0 100 100" xmlns="http://www.w3.org/2000/svg"><g transform="translate(12.7712 0) scale(1.69491)"><g><path d="M36.69 33.72c-.06-6.82 5.59-10.14 5.85-10.3v-.001c-2.28-3.25-5.95-5.23-9.9-5.35 -4.16-.44-8.2 2.49-10.32 2.49 -2.12 0-5.43-2.45-9-2.38v0c-4.63.17-8.82 2.76-11.04 6.82 -4.8 8.3-1.22 20.51 3.37 27.22 2.3 3.29 5 7 8.5 6.83 3.5-.17 4.73-2.19 8.88-2.19s5.32 2.19 8.9 2.1c3.58-.09 6-3.3 8.24-6.61v0c1.64-2.35 2.91-4.94 3.76-7.67l0-.001c-4.38-1.87-7.23-6.16-7.24-10.91Z"/><path d="M30.45 10.4v0c2.42-2.91 3.61-6.64 3.32-10.4v0c-3.7.39-7.1 2.15-9.55 4.94 -2 2.4-3.89 6.33-3.41 10 3.61.27 7.32-1.82 9.64-4.56Z"/></g></g></svg>