<svg viewBox="0 0 100 100" xmlns="http://www.w3.org/2000/svg"><g transform="scale(1.69491)"><g><path d="M22.5 25h-20v0C1.11 25 0 23.88 0 22.5v-20 0C0 1.11 1.11 0 2.5 0h20v0C23.88 0 25 1.11 25 2.5v20 0c0 1.38-1.12 2.5-2.5 2.5Z"/><path d="M56.5 25h-20v0c-1.39 0-2.5-1.12-2.5-2.5v-20 0C34 1.11 35.11 0 36.5 0h20v0C57.88 0 59 1.11 59 2.5v20 0c0 1.38-1.12 2.5-2.5 2.5Z"/><path d="M22.5 59h-20v0C1.11 59 0 57.88 0 56.5v-20 0C0 35.11 1.11 34 2.5 34h20v0c1.38 0 2.5 1.11 2.5 2.5v20 0c0 1.38-1.12 2.5-2.5 2.5Z"/><path d="M56.5 59h-20v0c-1.39 0-2.5-1.12-2.5-2.5v-20 0c0-1.39 1.11-2.5 2.5-2.5h20v0c1.38 0 2.5 1.11 2.5 2.5v20 0c0 1.38-1.12 2.5-2.5 2.5Z"/></g></g></svg>