<?xml version="1.0" encoding="utf-8"?>
<!-- Generator: Adobe Illustrator 25.4.1, SVG Export Plug-In . SVG Version: 6.00 Build 0)  -->
<svg version="1.1" id="Calque_1" xmlns="http://www.w3.org/2000/svg" xmlns:xlink="http://www.w3.org/1999/xlink" x="0px" y="0px"
	 viewBox="0 0 100 100" style="enable-background:new 0 0 100 100;" xml:space="preserve">
<path d="M4.9,55.1h77.9L56.2,81.8v0c-1.9,2-1.9,5.1,0,7.1c2,2,5.1,2,7.1,0c0,0,0,0,0,0l35.2-35.2l0,0c1.9-1.9,1.9-5.1,0-7.1
	L63.3,11.4l0,0c-1.9-2-5-2.1-7.1-0.2c-2,1.9-2.1,5-0.2,7.1c0.1,0.1,0.2,0.2,0.2,0.3l26.7,26.7H5l0,0c-2.7,0-5,2.2-5,5
	C0,52.9,2.2,55.1,4.9,55.1L4.9,55.1z"/>
</svg>
