<svg viewBox="0 0 100 100" xmlns="http://www.w3.org/2000/svg"><path d="M22.49 4.5h0c1.38-.01 2.5 1.1 2.5 2.48s-1.11 2.5-2.49 2.5c-1.39 0-2.51-1.11-2.51-2.49 -.01-.01-.01-.01-.01-.01v-.001c-.01-1.38 1.1-2.5 2.47-2.5 0-.01 0-.01.01-.01ZM34.5 7h-2.85v0c-1.39-5.06-6.6-8.04-11.66-6.66 -3.25.88-5.78 3.41-6.66 6.65h-2.84v0c-5.8 0-10.5 4.7-10.5 10.5v31 0c0 5.79 4.7 10.49 10.5 10.5h24v0c5.79-.01 10.49-4.71 10.5-10.5v-31 0c-.01-5.8-4.71-10.5-10.5-10.5Zm-4 40h-16v0c-1.39 0-2.5-1.12-2.5-2.5 0-1.39 1.11-2.5 2.5-2.5h16v0c1.38 0 2.5 1.11 2.5 2.5 0 1.38-1.12 2.5-2.5 2.5Zm1-11.5h-18v0c-1.39 0-2.5-1.12-2.5-2.5 0-1.39 1.11-2.5 2.5-2.5h18v0c1.38 0 2.5 1.11 2.5 2.5 0 1.38-1.12 2.5-2.5 2.5Zm0-11.5h-18v0c-1.39 0-2.5-1.12-2.5-2.5 0-1.39 1.11-2.5 2.5-2.5h18v0c1.38 0 2.5 1.11 2.5 2.5 0 1.38-1.12 2.5-2.5 2.5Z" transform="translate(11.8644 0) scale(1.69491)"/></svg>