<svg viewBox="0 0 100 100" xmlns="http://www.w3.org/2000/svg"><path d="M54.78 37.82v0c1.38 0 2.5-1.12 2.5-2.5 0-1.39-1.12-2.5-2.5-2.5h-6.11v0c-.26-2.74-.93-5.42-2-7.95h2.51v-.001c.77.01 1.51-.34 2-.94l4.68-5.88v-.001c.99-.97 1.01-2.55.05-3.54 -.97-1-2.55-1.02-3.54-.06 -.15.14-.28.29-.39.47l-4 4.94h-4.11v-.001c-1.48-2.03-3.29-3.78-5.36-5.17l.47-2.31v0C40.03 6.67 36.26 1.2 30.57.14c-5.7-1.06-11.17 2.71-12.23 8.4 -.24 1.26-.24 2.55 0 3.81l.42 2.31v-.001c-2.08 1.39-3.89 3.14-5.36 5.17H9.24L5.3 14.89H5.29c-.87-1.08-2.44-1.26-3.52-.4s-1.26 2.43-.4 3.51c0 0 0 0 0 0l4.69 5.88h0c.48.61 1.22.95 2 .94h2.51l0-.001c-1.08 2.54-1.76 5.24-2 8H2.45v0c-1.39 0-2.5 1.11-2.5 2.5 0 1.38 1.11 2.5 2.5 2.5h6.1l-.001 0c.25 2.73.93 5.41 2 7.94H8.01v0c-.78.01-1.5.38-1.95 1l-4.69 5.78 0-.001c-.86 1.08-.68 2.65.4 3.51l0-.001c1.06.86 2.62.69 3.48-.38 0-.01.01-.02.02-.03l3.94-4.94h4.11c3.7 5 9.17 8.24 15.26 8.24s11.56-3.2 15.26-8.24h4.1l4 4.94v0c.48.6 1.22.96 2 .95v0c1.38.02 2.52-1.08 2.54-2.46 .01-.59-.19-1.16-.55-1.61l-4.68-5.88v0c-.48-.63-1.22-1-2-1h-2.5v0c1.06-2.53 1.74-5.21 2-7.94Zm-20.14 6.26h-12v0c-1.39 0-2.5-1.12-2.5-2.5 0-1.39 1.11-2.5 2.5-2.5h12v0c1.38 0 2.5 1.11 2.5 2.5 0 1.38-1.12 2.5-2.5 2.5Zm0-12.53h-12v0c-1.39 0-2.5-1.12-2.5-2.5 0-1.39 1.11-2.5 2.5-2.5h12v0c1.38 0 2.5 1.11 2.5 2.5 0 1.38-1.12 2.5-2.5 2.5Z" transform="translate(1.45762 0) scale(1.69491)"/></svg>