<svg viewBox="0 0 100 100" xmlns="http://www.w3.org/2000/svg"><g transform="translate(5.08474 0) scale(1.69491)"><g><path d="M39.5 30h-1v0c-1.39 0-2.5 1.11-2.5 2.5 0 1.38 1.11 2.5 2.5 2.5h1v0c1.38 0 2.5-1.12 2.5-2.5 0-1.39-1.12-2.5-2.5-2.5Z"/><path d="M39.5 44h-1v0c-1.39 0-2.5 1.11-2.5 2.5 0 1.38 1.11 2.5 2.5 2.5h1v0c1.38 0 2.5-1.12 2.5-2.5 0-1.39-1.12-2.5-2.5-2.5Z"/><path d="M14.5 30h-1v0c-1.39 0-2.5 1.11-2.5 2.5 0 1.38 1.11 2.5 2.5 2.5h1v0c1.38 0 2.5-1.12 2.5-2.5 0-1.39-1.12-2.5-2.5-2.5Z"/><path d="M14.5 44h-1v0c-1.39 0-2.5 1.11-2.5 2.5 0 1.38 1.11 2.5 2.5 2.5h1v0c1.38 0 2.5-1.12 2.5-2.5 0-1.39-1.12-2.5-2.5-2.5Z"/><path d="M27 30h-1v0c-1.39 0-2.5 1.11-2.5 2.5 0 1.38 1.11 2.5 2.5 2.5h1v0c1.38 0 2.5-1.12 2.5-2.5 0-1.39-1.12-2.5-2.5-2.5Z"/><path d="M27 44h-1v0c-1.39 0-2.5 1.11-2.5 2.5 0 1.38 1.11 2.5 2.5 2.5h1v0c1.38 0 2.5-1.12 2.5-2.5 0-1.39-1.12-2.5-2.5-2.5Z"/><path d="M42.5 7h-1V2.5v0C41.5 1.11 40.38 0 39 0c-1.39 0-2.5 1.11-2.5 2.5V7h-20V2.5v0C16.5 1.11 15.38 0 14 0c-1.39 0-2.5 1.11-2.5 2.5V7h-1v0C4.7 7 0 11.7 0 17.5v31 0C0 54.29 4.7 58.99 10.5 59h32 0c5.79-.01 10.49-4.71 10.5-10.5v-31 0C52.99 11.7 48.29 7 42.5 7Zm0 47h-32v0C7.46 53.99 5 51.53 5 48.5V25h43v23.5 0c-.01 3.03-2.47 5.49-5.5 5.5Z"/></g></g></svg>