<svg viewBox="0 0 100 100" xmlns="http://www.w3.org/2000/svg"><path d="M56.56 46.44L43.7 33.57v-.001c-.6-.59-1.54-.59-2.13 0l-5.18 5.19v0c-3.77-2.15-7.24-4.79-10.3-7.85v0c-3.07-3.07-5.71-6.54-7.85-10.3l5.18-5.19v0c.58-.58.59-1.53.01-2.11 -.01-.01-.01-.01-.02-.02L10.55.42v0C9.97-.17 9.02-.18 8.44.4c-.01 0-.01 0-.02.01l-5.44 5.4V5.81C-.11 8.9-.91 13.6.98 17.548l0 0c4.02 8.32 9.43 15.91 16 22.43l0 0c6.51 6.56 14.1 11.97 22.43 16v0c1.37.65 2.88.99 4.41 1l-.001-.001c2.74 0 5.37-1.08 7.32-3l5.4-5.4h0c.59-.57.62-1.52.05-2.11 -.02-.02-.04-.04-.06-.06Z" transform="scale(1.75438)"/></svg>