<svg viewBox="0 0 100 100" xmlns="http://www.w3.org/2000/svg"><path d="M48.5 6h-6.35l-2.07-4.54v0C39.67.57 38.77-.01 37.8 0H21.2h-.001c-.98 0-1.87.57-2.27 1.46L16.85 6h-6.36v0C4.69 6-.01 10.7-.01 16.5v24 0c0 5.79 4.7 10.49 10.5 10.5h38 0c5.79-.01 10.49-4.71 10.5-10.5v-24 0C58.989 10.7 54.28 6 48.49 6Zm-19 33v0C23.7 39 19 34.29 19 28.5 19 22.7 23.7 18 29.5 18 35.29 18 40 22.7 40 28.5v-.001c-.01 5.79-4.71 10.49-10.5 10.5Zm0-16v0c-3.04 0-5.5 2.46-5.5 5.5 0 3.03 2.46 5.5 5.5 5.5 3.03 0 5.5-2.47 5.5-5.5v0c0-3.04-2.47-5.5-5.5-5.5Z" transform="translate(0 6.77966) scale(1.69491)"/></svg>