<svg viewBox="0 0 100 100" xmlns="http://www.w3.org/2000/svg"><path d="M29.5 0h0C13.2 0 0 13.2 0 29.5 0 45.79 13.2 59 29.5 59 45.79 59 59 45.79 59 29.5v0C58.98 13.21 45.78.01 29.5 0Zm11.77 37.73v-.001c.96.98.96 2.55 0 3.54v0c-.98.97-2.57.97-3.54 0l-8.23-8.27 -8.23 8.23h-.001c-.98.97-2.57.97-3.54-.01 -.98-.98-.98-2.57 0-3.54l8.27-8.19 -8.23-8.23v0c-.98-.98-.98-2.57 0-3.54 .97-.98 2.56-.98 3.54 0l8.19 8.27 8.23-8.23v0c.97-.98 2.56-.98 3.54 0 .97.97.97 2.56 0 3.54l-8.27 8.19Z" transform="scale(1.69491)"/></svg>