<svg viewBox="0 0 100 100" xmlns="http://www.w3.org/2000/svg"><path d="M50.7 39.28L33.41 4.7V4.69C31.31.48 26.2-1.22 22 .88c-1.65.82-2.99 2.15-3.81 3.8L.9 39.269v0c-2.1 4.2-.4 9.31 3.81 11.41 1.17.58 2.47.89 3.78.89h34.59v0c4.69-.01 8.5-3.83 8.49-8.53 -.01-1.32-.31-2.61-.9-3.79ZM28.31 39v0c0 1.38-1.12 2.5-2.5 2.5 -1.39 0-2.5-1.12-2.5-2.5v-1 0c0-1.39 1.11-2.5 2.5-2.5 1.38 0 2.5 1.11 2.5 2.5Zm0-8.5v0c0 1.38-1.12 2.5-2.5 2.5 -1.39 0-2.5-1.12-2.5-2.5v-12 0c0-1.39 1.11-2.5 2.5-2.5 1.38 0 2.5 1.11 2.5 2.5Z" transform="translate(0 .00968) scale(1.93798)"/></svg>