<svg viewBox="0 0 100 100" xmlns="http://www.w3.org/2000/svg"><g transform="translate(6.66666 0) scale(1.66666)"><g><path d="M41 60H23v0c-6.08 0-11-4.93-11-11V23v0c0-6.08 4.92-11 11-11h18v0c6.07 0 11 4.92 11 11v26 0c0 6.07-4.93 11-11 11ZM23 18v0c-2.77 0-5 2.23-5 5v26 0c0 2.76 2.23 5 5 5h18v0c2.76 0 5-2.24 5-5V23v0c0-2.77-2.24-5-5-5Z"/><path d="M3 40v0c-1.66 0-3-1.35-3-3V11v0C0 4.92 4.92 0 11 0h20v0c1.65 0 3 1.34 3 3 0 1.65-1.35 3-3 3H11v0c-2.77 0-5 2.23-5 5v26 0c0 1.65-1.35 3-3 3Z"/></g></g></svg>