<svg viewBox="0 0 100 100" xmlns="http://www.w3.org/2000/svg"><g transform="translate(0 11.6695) scale(1.69491)"><g><path d="M48.18 0H10.82v0C4.84 0 0 4.84 0 10.82v23.6h-.001c.01 5.96 4.85 10.8 10.82 10.81h37.36 0c5.96-.01 10.8-4.85 10.82-10.81v-23.6 0C58.98 4.84 54.149 0 48.179 0ZM10.82 5.9h37.36l0-.001c2.71 0 4.91 2.2 4.92 4.92v2.29H5.9v-2.29l0-.001c0-2.72 2.2-4.92 4.92-4.92Zm37.36 33.43H10.82v0c-2.72 0-4.92-2.2-4.92-4.91V19h47.2v15.42 0c-.01 2.71-2.21 4.91-4.92 4.91Z"/><path d="M28.55 32.12H12.82h-.001c-1.63-.01-2.95-1.33-2.95-2.95 0-1.63 1.32-2.95 2.95-2.95h15.73 0c1.62 0 2.95 1.32 2.95 2.95 -.01 1.62-1.33 2.95-2.95 2.95Z"/></g></g></svg>