<svg viewBox="0 0 100 100" xmlns="http://www.w3.org/2000/svg"><path d="M53.33 10.73H41.51h-.001c-1.64-7.39-8.95-12.04-16.34-10.4 -5.2 1.15-9.25 5.2-10.4 10.39H2.98v0c-1.65.21-2.81 1.71-2.59 3.36 .17 1.35 1.23 2.41 2.58 2.58h4.84l2.8 33.22v0c.46 5.13 4.74 9.06 9.9 9.1h15.22v0c5.15-.04 9.43-3.97 9.9-9.1l2.79-33.22h4.88 -.001c1.64-.22 2.8-1.72 2.58-3.37 -.18-1.36-1.24-2.42-2.59-2.59ZM28.15 6v0c3.12 0 5.94 1.89 7.15 4.78H21v-.001c1.22-2.88 4.02-4.75 7.15-4.78Zm-4.46 39.49h-.17l0-.001c-1.31 0-2.39-1.01-2.47-2.31l-.95-14.28h0c-.1-1.37.94-2.55 2.31-2.64 1.36-.1 2.54.94 2.64 2.31L26 42.85l-.001 0c.1 1.34-.92 2.52-2.26 2.62 -.02 0-.04 0-.06 0Zm11.56-2.3v0c-.09 1.29-1.17 2.3-2.47 2.31h-.17v-.001c-1.37-.09-2.4-1.26-2.32-2.62 0-.01 0-.01 0-.02l1-14.29h-.001c.07-1.36 1.24-2.4 2.59-2.32 .01 0 .02 0 .03 0v0c1.34.11 2.35 1.28 2.27 2.63Z" transform="translate(2.28813 0) scale(1.69491)"/></svg>