<svg viewBox="0 0 100 100" xmlns="http://www.w3.org/2000/svg"><g transform="scale(.20926)"><g><path d="M392.53 238.937c-9.43 0-17.07 7.64-17.07 17.06v170.666c0 9.42-7.65 17.06-17.07 17.06H51.19c-9.43 0-17.07-7.65-17.07-17.07V85.32c0-9.43 7.64-17.07 17.067-17.07h204.8c9.42 0 17.06-7.65 17.06-17.067 0-9.43-7.65-17.07-17.07-17.07H51.17c-28.28 0-51.2 22.92-51.2 51.2v341.333c0 28.27 22.923 51.2 51.2 51.2h307.2c28.27 0 51.2-22.93 51.2-51.2V255.97c0-9.43-7.65-17.07-17.07-17.07Z"/><path d="M458.742 19.142C446.482 6.88 429.867 0 412.53 0c-17.35-.05-33.98 6.846-46.2 19.149L141.52 243.933c-1.87 1.87-3.28 4.16-4.12 6.67l-34.14 102.4c-2.98 8.94 1.85 18.6 10.79 21.58 1.73.57 3.55.87 5.38.875 1.83-.01 3.65-.3 5.39-.87l102.4-34.14c2.51-.84 4.8-2.26 6.67-4.13l224.8-224.81c25.51-25.52 25.51-66.88 0-92.4Z"/></g></g></svg>