<svg viewBox="0 0 100 100" xmlns="http://www.w3.org/2000/svg"><g transform="scale(1.66666)"><g><path d="M33 30.46V3v0c0-1.66-1.35-3-3-3 -1.66 0-3 1.34-3 3v27.46 -.001c-5.27 1.65-8.2 7.26-6.55 12.53 .98 3.11 3.42 5.56 6.54 6.54v7.46 0c0 1.65 1.34 3 3 3 1.65 0 3-1.35 3-3v-7.46h-.001c5.26-1.66 8.19-7.27 6.54-12.54 -.99-3.12-3.43-5.57-6.55-6.55ZM30 44v0c-2.21 0-4-1.8-4-4 0-2.21 1.79-4 4-4 2.2 0 4 1.79 4 4v0c0 2.2-1.8 4-4 4Z"/><path d="M20 20v0c0-4.37-2.84-8.23-7-9.54V3h0c-.01-1.66-1.35-3-3-3C8.34 0 7 1.34 7 3v7.46l0 0C1.73 12.11-1.2 17.72.45 22.99c.98 3.11 3.42 5.56 6.54 6.54v27.46 0c0 1.65 1.34 3 3 3 1.65 0 3-1.35 3-3V29.53h-.001c4.16-1.32 7-5.18 7-9.54Zm-10 4v0c-2.21 0-4-1.8-4-4 0-2.21 1.79-4 4-4 2.2 0 4 1.79 4 4v0c0 2.2-1.8 4-4 4Z"/><path d="M60 20v0c0-4.37-2.84-8.23-7-9.54V3v0c0-1.66-1.35-3-3-3 -1.66 0-3 1.34-3 3v7.46l-.001 0c-5.27 1.65-8.2 7.26-6.55 12.53 .98 3.11 3.42 5.56 6.54 6.54v27.46 0c0 1.65 1.34 3 3 3 1.65 0 3-1.35 3-3V29.53v0c4.16-1.32 7-5.18 7-9.54Zm-10 4v0c-2.21 0-4-1.8-4-4 0-2.21 1.79-4 4-4 2.2 0 4 1.79 4 4v0c0 2.2-1.8 4-4 4Z"/></g></g></svg>