<svg viewBox="0 0 100 100" xmlns="http://www.w3.org/2000/svg"><g transform="scale(1.69491)"><g><path d="M56.05 15.73h-.001c-1.64-.03-2.96-1.37-2.95-3V5.9h-6.88v0c-1.63.3-3.2-.78-3.5-2.41 -.31-1.63.77-3.2 2.4-3.5 .36-.07.73-.07 1.09-.001h9.83v0c1.65 0 3 1.34 3 3v9.83h-.001c-.06 1.61-1.39 2.9-3 2.9Z"/><path d="M3 15.73v0c-1.64-.03-2.96-1.37-2.95-3V3v0C.04 1.36 1.36.02 3 0h9.83 0c1.62-.31 3.19.77 3.49 2.4 .3 1.62-.78 3.19-2.41 3.49 -.37.06-.74.06-1.1 0H5.88v6.88 0c-.03 1.59-1.31 2.89-2.9 2.95Z"/><path d="M56.05 59h-9.83v0c-1.63.3-3.2-.78-3.5-2.41 -.31-1.63.77-3.2 2.4-3.5 .36-.07.73-.07 1.09 0h6.88v-6.88h-.001c.3-1.63 1.86-2.71 3.49-2.41 1.22.22 2.17 1.18 2.4 2.4v9.83 0c-.03 1.61-1.34 2.92-2.95 2.95Z"/><path d="M12.78 59H3h0C1.36 58.97.04 57.63.05 56v-9.78h0c.3-1.63 1.86-2.71 3.49-2.41 1.22.22 2.17 1.18 2.4 2.4v6.88h6.88l-.001-.001c1.62-.31 3.19.77 3.49 2.4 .3 1.62-.78 3.19-2.41 3.49 -.37.06-.74.06-1.1 0Z"/><path d="M29.5 45.83h-.001c-4.69.02-9.2-1.77-12.58-5v0c-1.18-1.13-1.23-3-.1-4.18 1.12-1.18 2.99-1.23 4.17-.1v0c4.75 4.54 12.24 4.54 17 0v0c1.14-1.17 3-1.18 4.17-.04 1.16 1.14 1.17 3 .03 4.17 -.04.03-.08.07-.11.1h-.001c-3.39 3.25-7.91 5.05-12.6 5.03Z"/><path d="M44.74 25.22v-.001c-.89 0-1.74-.4-2.29-1.09v-.001c-1.07-1.3-2.96-1.53-4.3-.53v0c-1.33.94-3.17.63-4.12-.69 -.92-1.28-.67-3.05.56-4.03v0c3.88-2.87 9.32-2.2 12.4 1.52v0c1.02 1.26.83 3.12-.43 4.14 -.53.42-1.19.66-1.87.66Z"/><path d="M14.26 25.22v0c-1.63-.02-2.94-1.36-2.93-2.98 0-.67.23-1.32.66-1.84h-.001c3.07-3.72 8.51-4.39 12.4-1.52v0c1.27 1.01 1.48 2.86.47 4.14 -.98 1.22-2.75 1.47-4.03.56v0c-1.35-1-3.24-.77-4.3.53v0c-.56.69-1.41 1.09-2.29 1.09Z"/></g></g></svg>