<svg xmlns="http://www.w3.org/2000/svg" viewBox="0 0 290 266">
  <path d="M290,217.55a14.54,14.54,0,0,1-14.5,14.55H142.82l-.13.41a48.61,48.61,0,0,1-31,31.09l-.51.17a48.38,48.38,0,0,1-60.62-31.72H14.5a14.55,14.55,0,0,1,0-29.1H50.57a48.25,48.25,0,0,1,92.18.05H275.5A14.51,14.51,0,0,1,290,217.55Zm0-169a14.57,14.57,0,0,1-14.5,14.55H239.43A48.38,48.38,0,0,1,193.32,97h0l.05,0A48.47,48.47,0,0,1,147.25,63H14.5a14.55,14.55,0,0,1,0-29.09H147.25a48.26,48.26,0,0,1,92.18,0H275.5A14.51,14.51,0,0,1,290,48.52Zm-174,169a19.34,19.34,0,1,0-38.68,0h0v.34A19.42,19.42,0,0,0,96.63,237H97A19.4,19.4,0,0,0,116,217.55Zm96.68-169a19.34,19.34,0,1,0-38.67,0h0v.34a19.43,19.43,0,0,0,19.34,19h.34A19.38,19.38,0,0,0,212.65,48.52Z"/>
</svg>
