<svg viewBox="0 0 100 100" xmlns="http://www.w3.org/2000/svg"><g transform="scale(4.16666)"><g><path d="M20.48 4.816c-.19 0-.37-.07-.51-.2 -2.21-2.02-5.04-3.12-7.98-3.12 -2.936 0-5.768 1.108-7.98 3.12 -.31.27-.79.25-1.06-.05 -.28-.31-.26-.79.04-1.06C5.47 1.24 8.66-.02 11.97-.02c3.31 0 6.5 1.24 8.986 3.51 .3.27.32.75.04 1.06 -.15.16-.36.24-.56.24Z"/><path d="M21.75 9.71c-.25 0-.48-.12-.63-.34 -2.09-3.1-5.494-4.96-9.13-4.96 -3.64 0-7.045 1.851-9.13 4.95 -.24.34-.698.43-1.041.2 -.35-.24-.44-.7-.21-1.05 2.36-3.52 6.23-5.62 10.37-5.62 4.13 0 8.01 2.099 10.37 5.61 .23.34.14.81-.21 1.04 -.13.08-.28.12-.42.12Z"/><path d="M9.63 24c-.2 0-.39-.08-.54-.23 -.17-.17-4.007-4.09-4.007-7.87 0-3.92 3.099-7.109 6.9-7.109 3.81 0 6.9 3.189 6.9 7.109 0 .41-.34.75-.75.75 -.42 0-.75-.34-.75-.75 0-3.093-2.426-5.609-5.41-5.609 -2.99 0-5.41 2.516-5.41 5.609 0 3.16 3.53 6.773 3.57 6.8 .29.29.29.76-.01 1.061 -.15.14-.34.21-.53.21Z"/><path d="M14.36 24c-1.81 0-5.99-3.44-6.391-7.26 -.15-1.36.28-2.74 1.14-3.7 .75-.84 1.763-1.31 2.85-1.31h.02c1.06 0 2.06.41 2.83 1.17 .798.79 1.237 1.85 1.237 2.99v.48c0 1.2.93 2.18 2.09 2.18 1.154 0 2.093-.98 2.093-2.19v-.18c0-4.67-3.39-8.56-7.702-8.843 -2.26-.16-4.42.625-6.08 2.183 -1.73 1.61-2.722 3.93-2.722 6.34 0 1.98.67 3.91 1.892 5.44 .258.32.2.79-.12 1.05 -.33.25-.8.2-1.06-.12 -1.431-1.8-2.22-4.06-2.22-6.38 0-2.83 1.166-5.54 3.19-7.44 1.97-1.846 4.53-2.77 7.2-2.585 5.1.34 9.1 4.883 9.1 10.34v.17c0 2.032-1.62 3.68-3.593 3.68 -1.99 0-3.6-1.66-3.6-3.69v-.49c0-.74-.29-1.43-.8-1.94 -.48-.48-1.109-.74-1.78-.74 -.01 0-.01 0-.02 0 -.85 0-1.42.44-1.75.81 -.59.65-.875 1.6-.78 2.53 .33 3.11 3.91 5.913 4.9 5.913 .41 0 .75.33.75.75 0 .41-.34.74-.75.74Z"/><path d="M17.152 22.533c-2.69 0-5.961-3.28-5.961-7.109 0-.42.33-.75.75-.75 .41 0 .75.33.75.75 0 2.96 2.49 5.609 4.461 5.609 .41 0 .75.33.75.75 0 .41-.34.75-.75.75Z"/></g></g></svg>