<svg viewBox="0 0 100 100" xmlns="http://www.w3.org/2000/svg"><path d="M38.5 0h-28v0C4.7 0 0 4.7 0 10.5v38 0C0 54.29 4.7 58.99 10.5 59h28v0c5.79-.01 10.49-4.71 10.5-10.5v-38 0C48.99 4.7 44.29 0 38.5 0Zm-14 44.83h-12v0c-1.39 0-2.5-1.12-2.5-2.5 0-1.39 1.11-2.5 2.5-2.5h12v0c1.38 0 2.5 1.11 2.5 2.5 0 1.38-1.12 2.5-2.5 2.5Zm12-12.66h-24v0c-1.39 0-2.5-1.12-2.5-2.5 0-1.39 1.11-2.5 2.5-2.5h24v0c1.38 0 2.5 1.11 2.5 2.5 0 1.38-1.12 2.5-2.5 2.5Zm0-13h-24v0c-1.39 0-2.5-1.12-2.5-2.5 0-1.39 1.11-2.5 2.5-2.5h24v0c1.38 0 2.5 1.11 2.5 2.5 0 1.38-1.12 2.5-2.5 2.5Z" transform="translate(8.47457 0) scale(1.69491)"/></svg>