<svg viewBox="0 0 100 100" xmlns="http://www.w3.org/2000/svg"><g transform="scale(1.81686)"><g><path d="M20.78 19.3L35.59 4.49 31.84.74v0C31.36.26 30.72 0 30.05 0v0c-.67 0-1.31.26-1.78.74L17 12v0c-.99.98-.99 2.57-.01 3.56 0 0 0 0 0 0Z"/><path d="M54.3 23.2l-3.75-3.75 -14.81 14.81L39.49 38v0c.47.47 1.11.73 1.79.74v0c.66-.01 1.3-.27 1.78-.74L54.3 26.77v-.001c.45-.48.71-1.12.7-1.77v0c.01-.67-.25-1.32-.7-1.8Z"/><path d="M33.41 30.89l13.76-13.77v0c-3.97-2.06-7.2-5.29-9.25-9.25L24.15 21.64h-.001c.47.22.93.47 1.38.74L.43 47.46H.43c-.6.58-.6 1.54-.01 2.13 0 0 0 0 0 0l5 5h0c.59.58 1.54.58 2.14 0L32.65 29.5c.27.49.52.92.74 1.38Z"/></g></g></svg>