<svg viewBox="0 0 100 100" xmlns="http://www.w3.org/2000/svg"><g transform="scale(1.66666)"><g><path d="M57 27h-4.2v-.001C51.44 16.66 43.32 8.549 33 7.19v-4.2 0c0-1.66-1.35-3-3-3 -1.66 0-3 1.34-3 3v4.2 -.001c-10.33 1.35-18.45 9.47-19.8 19.8H3v0c-1.66 0-3 1.34-3 3 0 1.65 1.34 3 3 3h4.2 -.001c1.35 10.32 9.47 18.44 19.8 19.8v4.2 0c0 1.65 1.34 3 3 3 1.65 0 3-1.35 3-3v-4.2 0c10.32-1.36 18.44-9.48 19.8-19.8h4.2v0c1.65 0 3-1.35 3-3 0-1.66-1.35-3-3-3ZM30 47v0c-9.39 0-17-7.62-17-17 0-9.39 7.61-17 17-17 9.38 0 17 7.61 17 17v0c0 9.38-7.62 17-17 17Z"/><path d="M30 20a10 10 0 1 0 0 20 10 10 0 1 0 0-20Z"/></g></g></svg>