<svg viewBox="0 0 100 100" xmlns="http://www.w3.org/2000/svg"><path d="M29.5 57.27l-1.08-.51h0c-5.12-2.62-9.86-5.9-14.1-9.76C5 38.54 0 28.68 0 18.5v0C-.01 8.28 8.27 0 18.48 0c3.96-.01 7.82 1.27 11.01 3.63l0-.001c8.2-6.09 19.78-4.36 25.86 3.84 2.36 3.18 3.63 7.04 3.63 11.01 0 10.18-5 20-14.32 28.52l-.001-.001c-4.25 3.85-9 7.12-14.1 9.74ZM18.5 5h0C11.04 5.01 5.01 11.04 5 18.5 5 37.2 24.63 49 29.5 51.68 34.36 49 54 37.2 54 18.5v0C54 11.04 47.96 5 40.51 5c-3.47-.01-6.79 1.32-9.3 3.7l-1.72 1.64 -1.72-1.64v-.001c-2.51-2.39-5.83-3.72-9.28-3.71Z" transform="translate(0 1.4661) scale(1.69491)"/></svg>