<svg viewBox="0 0 100 100" xmlns="http://www.w3.org/2000/svg"><path d="M29.5 0h0C13.2 0 0 13.2 0 29.5 0 45.79 13.2 59 29.5 59 45.79 59 59 45.79 59 29.5v0C58.97 13.21 45.78.02 29.5 0Zm-.74 45.92v0c-1.66 0-3-1.35-3-3 0-1.66 1.34-3 3-3 1.65 0 3 1.34 3 3h-.001c0 1.65-1.35 3-3 3Zm5.14-14.39v-.001c-1.58.48-2.65 1.94-2.64 3.6v0c0 1.38-1.12 2.5-2.5 2.5 -1.39 0-2.5-1.12-2.5-2.5v0c-.02-3.85 2.48-7.25 6.16-8.38v-.001c1.57-.49 2.65-1.95 2.65-3.6v0c-.14-3.08-2.73-5.46-5.81-5.33 -2.9.12-5.21 2.43-5.33 5.32v0c0 1.38-1.12 2.5-2.5 2.5 -1.39 0-2.5-1.12-2.5-2.5v0c.17-5.84 5.05-10.42 10.89-10.24 5.58.17 10.06 4.65 10.23 10.23v-.001c.01 3.84-2.5 7.24-6.17 8.38Z" transform="scale(1.69491)"/></svg>