<svg viewBox="0 0 100 100" xmlns="http://www.w3.org/2000/svg"><path d="M54.63 44.94v0c5.84-9.49 5.83-21.47-.03-30.94v0c-.06-.16-.14-.3-.22-.43l-.21-.25v-.001c-2.24-3.4-5.14-6.31-8.54-8.53l-.2-.17v0c-.12-.07-.23-.14-.35-.18v0c-9.58-5.99-21.75-5.96-31.29.08l-.19.1 -.11.09 0-.001c-3.5 2.27-6.48 5.25-8.75 8.75l-.09.11c0 .06-.06.12-.1.19l-.001-.001c-6.04 9.54-6.07 21.71-.08 31.29h0c.04.12.11.23.18.35 0 .06.1.1.14.16H4.78c2.23 3.41 5.14 6.33 8.56 8.58l.25.21 .27.12h0c9.53 5.96 21.64 5.96 31.18 0l0-.001c.13-.05.25-.11.38-.17 .12-.09.23-.19.34-.29v0c3.32-2.21 6.16-5.06 8.36-8.39v0c.09-.09.17-.18.25-.27h0c.09-.14.17-.27.25-.41ZM5 29.5l0 0c-.01-3.8.88-7.54 2.58-10.93l6.72 4.51h-.001c-1.75 4.11-1.75 8.74 0 12.86l-6.71 4.51 0-.001c-1.71-3.4-2.6-7.15-2.59-10.95Zm13 0v0C18 23.14 23.14 18 29.5 18 35.85 18 41 23.14 41 29.5 41 35.85 35.85 41 29.5 41v0C23.15 40.99 18 35.84 18 29.5Zm26.7-6.41l6.73-4.5v0c3.43 6.87 3.43 14.96 0 21.84l-6.72-4.5v0c1.73-4.11 1.73-8.74 0-12.84Zm-4.25-15.5l-4.51 6.72v0c-4.12-1.75-8.75-1.75-12.86-.001l-4.51-6.73 0-.001c6.88-3.45 14.99-3.45 21.88 0ZM18.59 51.43l4.5-6.73v0c4.1 1.73 8.73 1.73 12.84 0l4.5 6.72h-.001c-6.88 3.43-14.97 3.43-21.84 0Z" transform="scale(1.69491)"/></svg>