<svg viewBox="0 0 100 100" xmlns="http://www.w3.org/2000/svg"><path d="M58.24 27.76l-27-27v0c-.48-.49-1.13-.77-1.8-.76v0V-.01c-.67-.01-1.3.26-1.77.73L.8 27.65l-.001-.001c-.95.91-1.07 2.39-.27 3.45H.52c.87 1.06 2.44 1.22 3.51.35 .06-.06.13-.12.19-.18l2.69-2.69v18.77h0c0 5.79 4.69 10.49 10.49 10.49h24.1 0c5.78-.01 10.48-4.71 10.48-10.49V28.59l2.7 2.69v0c.97.97 2.56.97 3.54-.001v0c.97-.98.97-2.56 0-3.54 -.01-.01-.01-.01-.01-.01ZM35.47 47.35h-12v0c-1.11 0-2-.9-2-2v-5.56 0c-.06-4.29 3.2-7.88 7.47-8.25v0c4.4-.3 8.21 3.04 8.51 7.45 .01.18.01.36.01.54v5.83h0c-.02 1.09-.91 1.98-2 1.98Z" transform="translate(0 .94115) scale(1.69577)"/></svg>