<svg viewBox="0 0 100 100" xmlns="http://www.w3.org/2000/svg"><g transform="scale(1.69491)"><g><path d="M56.5 32h-3.32v0c-1.39 0-2.5-1.12-2.5-2.5 0-1.39 1.11-2.5 2.5-2.5h3.32v0c1.38 0 2.5 1.11 2.5 2.5 0 1.38-1.12 2.5-2.5 2.5Z"/><path d="M5.82 32H2.5v0C1.11 32 0 30.88 0 29.5 0 28.11 1.11 27 2.5 27h3.32v0c1.38 0 2.5 1.11 2.5 2.5 0 1.38-1.12 2.5-2.5 2.5Z"/><path d="M29.5 8.32v0c-1.39 0-2.5-1.12-2.5-2.5V2.5v0C27 1.11 28.11 0 29.5 0 30.88 0 32 1.11 32 2.5v3.32 0c0 1.38-1.12 2.5-2.5 2.5Z"/><path d="M10.41 51.09l0-.001c-1.39 0-2.51-1.12-2.51-2.5 -.01-.67.26-1.31.73-1.78l2.36-2.34h-.001c1.06-.89 2.63-.74 3.52.33 .76.92.76 2.26-.001 3.18l-2.34 2.35h0c-.47.47-1.11.73-1.77.74Z"/><path d="M46.25 15.25h-.001c-1.39-.01-2.5-1.14-2.49-2.52 0-.65.26-1.28.71-1.74l2.35-2.35v0c1.02-.93 2.6-.84 3.53.19 .84.94.84 2.38 0 3.33l-2.36 2.34v0c-.47.46-1.1.72-1.75.73Z"/><path d="M48.59 51.09v0c-.67 0-1.3-.26-1.76-.73L44.48 48v0c-.89-1.07-.74-2.64.33-3.52 .92-.77 2.26-.77 3.18 0l2.35 2.34 -.001-.001c.97.97.97 2.55 0 3.53 -.48.47-1.11.73-1.78.73Z"/><path d="M12.76 15.25h0c-.67-.01-1.3-.27-1.76-.73l-2.36-2.35v0c-.96-1-.93-2.58.06-3.54 .97-.94 2.5-.94 3.47 0l2.34 2.36v0c.97.97.97 2.54 0 3.52 -.01 0-.01 0-.01 0v0c-.47.46-1.11.72-1.76.72Z"/><path d="M29.5 59l-.001 0c-5.25-.01-9.5-4.26-9.5-9.5v-5.3 0c-5.23-3.35-8.28-9.23-8-15.42l-.001-.001c.41-9.06 7.62-16.32 16.68-16.78v0c9.65-.48 17.86 6.96 18.33 16.62 .3 6.25-2.76 12.19-8.02 15.57v5.3 0c-.01 5.24-4.26 9.49-9.5 9.5Z"/></g></g></svg>