<svg viewBox="0 0 100 100" xmlns="http://www.w3.org/2000/svg"><g transform="scale(1.69491)"><g><path d="M48.5 0h-38v0C4.7 0 0 4.7 0 10.5v38 0C0 54.29 4.7 58.99 10.5 59h38 0c5.79-.01 10.49-4.71 10.5-10.5v-38 0C58.99 4.7 54.29 0 48.5 0Zm-38 5h38v0c3.03 0 5.49 2.46 5.5 5.5v21.86L43.85 22.21l0 0c-1-.95-2.55-.95-3.54 0L27.44 35.08l-6.5-6.49v0c-.97-.98-2.55-.99-3.53-.02 -.01 0-.02.01-.02.01L4.99 40.99v-30.5h0c0-3.04 2.46-5.5 5.5-5.5Z"/><path d="M27.28 13.86a4 4 0 1 0 0 8 4 4 0 1 0 0-8Z"/></g></g></svg>