<svg viewBox="0 0 100 100" xmlns="http://www.w3.org/2000/svg"><path d="M59 29.5v0C58.97 13.25 45.84.07 29.6 0h-.19v0C13.11.02-.07 13.25-.05 29.54c.02 16.29 13.25 29.47 29.54 29.45v0 0c16.28-.02 29.48-13.22 29.5-29.5ZM29.5 53h-.001c-3.3-3.45-5.85-7.54-7.5-12h15v0c-1.66 4.46-4.21 8.55-7.5 12Zm-8.86-17h-.001c-.86-4.3-.86-8.71 0-13h17.72 0c.85 4.29.85 8.7 0 13ZM5 29.5v-.001c0-2.2.29-4.39.88-6.5h9.68l0-.001c-.75 4.3-.75 8.69-.001 13h-9.68l0-.001c-.59-2.12-.88-4.31-.88-6.5ZM29.5 6h0c3.29 3.44 5.84 7.53 7.5 12H22l-.001 0c1.65-4.47 4.2-8.56 7.5-12Zm13.94 17h9.68v0c1.17 4.25 1.17 8.74 0 13h-9.68 -.001c.74-4.31.74-8.7 0-13Zm7.69-5h-8.89 0c-1.39-4.4-3.53-8.51-6.34-12.15V5.84c6.53 1.78 12.03 6.17 15.23 12.15ZM23.1 5.85V5.84c-2.82 3.64-4.96 7.75-6.34 12.15H7.87v0c3.19-5.98 8.69-10.37 15.23-12.15ZM7.87 41h8.89l-.001 0c1.38 4.39 3.52 8.5 6.34 12.15v0C16.55 51.36 11.05 46.97 7.86 41Zm28 12.15h-.001c2.82-3.65 4.97-7.76 6.37-12.15h8.89v0c-3.2 5.97-8.7 10.36-15.23 12.15Z" transform="scale(1.69491)"/></svg>