<svg viewBox="0 0 100 100" xmlns="http://www.w3.org/2000/svg"><g transform="translate(0 23.6083) scale(1.66666)"><g><path d="M19.34 31.67C8.67 31.67 0 24.57 0 15.84 0 7.11 8.67 0 19.34 0v0c1.65 0 3 1.34 3 3 0 1.65-1.35 3-3 3C12 6 6 10.41 6 15.84c0 5.43 6 9.83 13.34 9.83s13.33-4.41 13.33-9.83v0c0-1.66 1.34-3 3-3 1.65 0 3 1.34 3 3 0 8.73-8.67 15.83-19.33 15.83Z"/><path d="M40.66 31.67v0c-1.66 0-3-1.35-3-3 0-1.66 1.34-3 3-3C48 25.67 54 21.26 54 15.84 54 10.42 48 6 40.66 6c-7.34 0-13.33 4.41-13.33 9.84v0c0 1.65-1.35 3-3 3 -1.66 0-3-1.35-3-3C21.32 7.1 30 0 40.66 0 51.32 0 60 7.1 60 15.84c0 8.74-8.67 15.83-19.34 15.83Z"/></g></g></svg>