<svg viewBox="0 0 100 100" xmlns="http://www.w3.org/2000/svg"><path d="M38.5 19.5h-1V11v0c0-6.08-4.93-11-11-11h-8v0c-6.08 0-11 4.92-11 11v8.5h-1v0C2.91 19.5 0 22.41 0 26v23 0c0 5.79 4.7 10.49 10.5 10.5h24v0c5.79-.01 10.49-4.71 10.5-10.5V26v0c-.01-3.59-2.92-6.5-6.5-6.5ZM25 39.45V45v0c0 1.38-1.12 2.5-2.5 2.5 -1.39 0-2.5-1.12-2.5-2.5v-5.55 0c-1.39-.14-2.39-1.37-2.25-2.75 .13-1.39 1.36-2.39 2.75-2.25h4v0c1.38-.14 2.61.86 2.75 2.25 .13 1.38-.87 2.61-2.25 2.75ZM31.5 19h-18v-8 0c0-2.77 2.23-5 5-5h8v0c2.76 0 5 2.23 5 5Z" transform="translate(12.1849 0) scale(1.68067)"/></svg>