<svg viewBox="0 0 100 100" xmlns="http://www.w3.org/2000/svg"><g transform="translate(5.8305 0) scale(1.69491)"><g><path d="M41.3 0H10.82v0C4.84 0-.001 4.84-.001 10.82v8.85 -.001c.3 1.62 1.86 2.7 3.49 2.4 1.22-.23 2.17-1.19 2.4-2.41v-8.85l-.001-.001c0-2.72 2.2-4.92 4.92-4.92h30.48v0c2.71 0 4.91 2.2 4.92 4.92v37.36 0c-.01 2.71-2.21 4.91-4.92 4.92H10.8 10.8c-2.72-.01-4.92-2.21-4.92-4.92v-8.85 0c0-1.63-1.33-2.95-2.95-2.95 -1.63 0-2.95 1.32-2.95 2.95v8.85H-.02c0 5.97 4.84 10.81 10.82 10.82h30.48v0c5.97-.01 10.81-4.85 10.82-10.82v-37.36 0C52.09 4.82 47.25-.02 41.28-.02Z"/><path d="M0 29.5v0c0 1.65 1.34 3 3 3h24.79L21 39.21v0c-.95 1.36-.62 3.22.74 4.17 1.02.71 2.39.71 3.42 0l11.83-11.8v0c1.13-1.17 1.13-3.02 0-4.18l-11.8-11.8h-.001c-1.34-.98-3.22-.69-4.2.65 -.77 1.04-.77 2.47-.01 3.52l6.77 6.76H2.97v0c-1.64-.01-2.98 1.31-3 2.95Z"/></g></g></svg>