<svg viewBox="0 0 100 100" xmlns="http://www.w3.org/2000/svg"><path d="M48.5 0h-38v0C4.7 0 0 4.7 0 10.5v30 0C0 46.29 4.7 50.99 10.5 51h38 0c5.79-.01 10.49-4.71 10.5-10.5v-30 0C58.99 4.7 54.29 0 48.5 0Zm3.23 17.31L33.79 27.4v0c-2.67 1.47-5.92 1.47-8.58 0L7.27 17.31v0c-1.28-.54-1.88-2-1.35-3.28 .53-1.28 1.99-1.88 3.27-1.35 .18.07.36.18.52.3l17.93 10v0c1.14.63 2.53.63 3.68 0l17.93-10v-.001c1.17-.72 2.71-.35 3.43.83 .71 1.17.34 2.71-.84 3.43 -.05.02-.1.05-.15.07Z" transform="translate(0 6.77966) scale(1.69491)"/></svg>