<svg viewBox="0 0 100 100" xmlns="http://www.w3.org/2000/svg"><path d="M40.5 0h-22v0C8.28.01.01 8.28 0 18.5v10 0c.02 8.47 5.78 15.84 14 17.92v8.08 0c-.01.88.46 1.69 1.22 2.15h0c.38.22.82.34 1.28.35v0c.41 0 .82-.11 1.19-.3L35.54 47h5v0c10.19-.04 18.44-8.31 18.46-18.5v-10 0C58.98 8.28 50.71.01 40.5 0Zm.5 35.5H18v0c-1.39 0-2.5-1.12-2.5-2.5 0-1.39 1.11-2.5 2.5-2.5h23v0c1.38 0 2.5 1.11 2.5 2.5 0 1.38-1.12 2.5-2.5 2.5Zm0-9.5H18v0c-1.39 0-2.5-1.12-2.5-2.5 0-1.39 1.11-2.5 2.5-2.5h23v0c1.38 0 2.5 1.11 2.5 2.5 0 1.38-1.12 2.5-2.5 2.5Zm0-9.5H18v0c-1.39 0-2.5-1.12-2.5-2.5 0-1.39 1.11-2.5 2.5-2.5h23v0c1.38 0 2.5 1.11 2.5 2.5 0 1.38-1.12 2.5-2.5 2.5Z" transform="translate(0 1.69491) scale(1.69491)"/></svg>