<svg viewBox="0 0 100 100" xmlns="http://www.w3.org/2000/svg"><path d="M40.5 23h-7V12v0c0-6.63-5.38-12-12-12 -6.63 0-12 5.37-12 12v11h-7v0C1.13 22.99.02 24.09 0 25.46v4l-.001-.001c-.01 10.91 8.16 20.1 19 21.38v5.66 0c0 1.38 1.11 2.5 2.5 2.5 1.38 0 2.5-1.12 2.5-2.5v-5.66 0c10.82-1.28 18.98-10.45 19-21.34v-4 0c0-1.39-1.12-2.5-2.5-2.5ZM38 29.5v0C38 38.61 30.61 46 21.5 46 12.38 46 5 38.61 5 29.5V28h4.5v1.5 0c0 6.62 5.37 12 12 12 6.62 0 12-5.38 12-12V28H38Z" transform="translate(13.5593 0) scale(1.69491)"/></svg>