<svg viewBox="0 0 100 100" xmlns="http://www.w3.org/2000/svg"><g transform="translate(9.48305 0) scale(1.69491)"><g><path d="M46.66 36.58l-2.52-3.73v0c-.66-.98-1.01-2.12-1-3.29V19.23v0c0-10.64-8.62-19.26-19.25-19.26 -.3-.01-.6 0-.9.02v0C12.59.58 4.5 9.27 4.66 19.69v9.86 -.001c0 1.17-.35 2.31-1 3.29l-2.52 3.73H1.13c-2.07 3.05-1.27 7.2 1.79 9.27 1.1.74 2.4 1.14 3.73 1.14h34.45v0c3.68-.01 6.67-3 6.67-6.69 -.01-1.34-.4-2.64-1.15-3.74Z"/><path d="M23.93 59v0c5.15-.02 9.76-3.2 11.62-8H12.26h0c1.85 4.82 6.49 8 11.67 8Z"/></g></g></svg>