<?xml version="1.0" encoding="utf-8"?>
<!-- Generator: Adobe Illustrator 25.4.1, SVG Export Plug-In . SVG Version: 6.00 Build 0)  -->
<svg version="1.1" id="Calque_1" xmlns="http://www.w3.org/2000/svg" xmlns:xlink="http://www.w3.org/1999/xlink" x="0px" y="0px"
	 viewBox="0 0 100 100" style="enable-background:new 0 0 100 100;" xml:space="preserve">
<path d="M30.8,87.9L30.8,87.9z M97.5,21.1L78.9,2.5v0c-2.2-2.2-5.7-2.2-7.9,0c0,0,0,0,0,0l-12,12l26.5,26.6l12-12v0
	c2.2-2.1,2.3-5.6,0.1-7.9C97.6,21.1,97.5,21.1,97.5,21.1L97.5,21.1z M8.2,65.3L8.2,65.3C7.5,66,7,66.9,6.7,67.8l-6.4,25l0,0
	c-0.9,2.9,0.8,6,3.7,6.9c1,0.3,2.1,0.3,3.2,0l24.9-6.5l0,0c1-0.3,1.8-0.8,2.6-1.5l42.9-42.9L51.1,22.4L8.2,65.3z"/>
</svg>
