<svg viewBox="0 0 100 100" xmlns="http://www.w3.org/2000/svg"><g transform="translate(.05084 0) scale(1.69491)"><g><path d="M29.48 59h0C13.2 59 0 45.81-.01 29.54c-.01-7.83 3.1-15.33 8.63-20.86v0c.94-1.37 2.81-1.71 4.17-.76 1.36.94 1.7 2.81.75 4.17 -.21.29-.46.55-.76.75v0c-9.22 9.2-9.22 24.13-.01 33.34 9.2 9.21 24.13 9.21 33.34 0 9.21-9.21 9.21-24.14 0-33.35 -.01-.01-.01-.01-.01-.01v0c-1.12-1.19-1.06-3.06.12-4.17 1.13-1.07 2.9-1.07 4.04 0v0c11.5 11.5 11.51 30.16 0 41.67 -5.53 5.52-13.03 8.63-20.85 8.63Z"/><path d="M29.48 32.43h-.001c-1.62-.03-2.93-1.34-2.95-2.95V3l-.001 0c0-1.63 1.32-2.95 2.95-2.95 1.62 0 2.95 1.32 2.95 2.95v26.48 0c-.03 1.61-1.34 2.92-2.95 2.95Z"/></g></g></svg>