<svg viewBox="0 0 100 100" xmlns="http://www.w3.org/2000/svg"><g transform="scale(1.66666)"><g><path d="M38 8h-8.76l2.88-2.88v0c1.21-1.13 1.27-3.03.14-4.24C31.13-.34 29.23-.4 28.02.73c-.06.04-.11.09-.15.14l-8 8v0c-1.17 1.17-1.17 3.06 0 4.24l8 8v0c1.17 1.16 3.06 1.16 4.24 0v0c1.16-1.18 1.16-3.07 0-4.24l-2.88-2.88h8.76v0c8.83 0 15.99 7.16 15.99 16 -.01 4.62-2.01 9.02-5.5 12.06v0c-1.26 1.08-1.39 2.98-.3 4.23 1.08 1.25 2.98 1.38 4.23.29 0-.01 0-.01 0-.01l0-.001c9.16-7.98 10.13-21.87 2.16-31.04 -4.18-4.81-10.24-7.57-16.61-7.57Z"/><path d="M32.12 38.88v0c-1.22-1.13-3.12-1.07-4.24.14 -1.08 1.15-1.08 2.93 0 4.09l2.88 2.88H22v0c-8.84-.01-16-7.17-16-16.01 0-4.63 2-9.03 5.49-12.07h-.001c1.25-1.09 1.38-2.99.29-4.24 -1.09-1.26-2.99-1.39-4.24-.3l0 0C-1.64 21.34-2.61 35.23 5.36 44.4c4.17 4.8 10.23 7.56 16.6 7.56h8.76l-2.88 2.88v0c-1.17 1.17-1.17 3.06 0 4.24v-.001c1.17 1.16 3.06 1.16 4.24 0l8-8v0c1.16-1.18 1.16-3.07 0-4.24Z"/></g></g></svg>