<svg viewBox="0 0 100 100" xmlns="http://www.w3.org/2000/svg"><path d="M49.17 39.33v-.001c-2.83-.01-5.52 1.21-7.38 3.35L19.46 31.51l0 0c.27-1.32.27-2.69 0-4l19.92-10h0c3.65 4.79 10.49 5.72 15.28 2.07 4.79-3.66 5.72-10.5 2.07-15.29 -3.66-4.8-10.5-5.73-15.29-2.08 -2.72 2.06-4.31 5.28-4.31 8.69v0c0 .67.06 1.34.19 2L17.19 22.97v0c-3.59-4.08-9.81-4.47-13.88-.88 -4.08 3.58-4.47 9.8-.88 13.87 3.58 4.07 9.8 4.46 13.87.87 .3-.28.6-.57.87-.88L39.5 47.1v0c-.14.65-.21 1.32-.21 2v0c0 5.43 4.4 9.84 9.84 9.84 5.43 0 9.84-4.41 9.84-9.84 0-5.44-4.41-9.84-9.84-9.84Z" transform="scale(1.69491)"/></svg>