<svg viewBox="0 0 100 100" xmlns="http://www.w3.org/2000/svg"><g transform="translate(0 4.44067) scale(1.69491)"><g><path d="M58.48 12.22l0-.001c-.56-.8-1.47-1.28-2.43-1.28H15.19l-.34-1.74v0C14.03 4.9 10.7 1.52 6.43.65L3.55.05V.05C1.89 0 .51 1.31.47 2.97c-.04 1.24.71 2.38 1.87 2.85l2.88.6h0c1.94.39 3.45 1.92 3.83 3.88l.79 4.07s0 .09 0 .13l2.92 15.09 -.001-.001c.98 5.08 5.43 8.76 10.62 8.77h19v0c4.48-.03 8.49-2.81 10.09-7l6.32-16.38v0c.35-.93.23-1.97-.32-2.78Z"/><path d="M42.11 43.93h-.001c-2.72-.02-4.94 2.17-4.95 4.88 -.02 2.71 2.17 4.93 4.88 4.94 2.71.01 4.93-2.18 4.94-4.89 0-.02 0-.03 0-.04v0c0-2.71-2.19-4.9-4.89-4.91Z"/><path d="M22.79 43.92a4.92 4.92 0 1 0 0 9.84 4.92 4.92 0 1 0 0-9.84Z"/></g></g></svg>