<svg viewBox="0 0 100 100" xmlns="http://www.w3.org/2000/svg"><path d="M46.19 56.36h0c-.42 0-.83-.1-1.19-.28L29.5 48 14 56.08v0c-1.23.63-2.74.16-3.38-1.07 -.26-.49-.34-1.04-.25-1.57l2.87-17.27L.74 23.89H.73c-.99-.96-1.01-2.54-.05-3.53 .38-.4.88-.66 1.42-.73l17.31-2.65 7.82-15.62 0 0c.62-1.24 2.13-1.74 3.37-1.11 .47.24.86.62 1.1 1.1l7.82 15.62 17.31 2.61v0c1.36.19 2.3 1.45 2.1 2.82 -.08.54-.34 1.04-.73 1.42L45.73 36.14l2.87 17.27v0c.22 1.36-.7 2.64-2.06 2.87 -.14.02-.27.03-.41.03Z" transform="translate(0 2.23728) scale(1.69491)"/></svg>