<?xml version="1.0" encoding="utf-8"?>
<!-- Generator: Adobe Illustrator 25.4.1, SVG Export Plug-In . SVG Version: 6.00 Build 0)  -->
<svg version="1.1" id="Calque_1" xmlns="http://www.w3.org/2000/svg" xmlns:xlink="http://www.w3.org/1999/xlink" x="0px" y="0px"
	 viewBox="0 0 100 100" style="enable-background:new 0 0 100 100;" xml:space="preserve">
<path d="M96.3,35.4L67,31L53.8,4.5c-0.4-0.8-1.1-1.5-1.9-1.9c-0.6-0.3-1.3-0.5-1.9-0.5c-1.4,0-2.8,0.7-3.6,1.9
	c-0.1,0.1-0.2,0.3-0.2,0.4L32.9,31l-21.4,3.3l-7.9,1.2c-0.9,0.1-1.8,0.6-2.4,1.2c-0.8,0.8-1.2,1.9-1.2,3c0,1.1,0.4,2.2,1.3,3
	l10.2,10l11,10.8l-4.8,28.8l-0.1,0.5c0,0.2-0.1,0.5-0.1,0.7c0,1.3,0.6,2.6,1.8,3.4c0.7,0.5,1.6,0.8,2.5,0.8c0.7,0,1.3-0.2,2-0.5
	l9.5-4.9L50,83.6l0,0l26.3,13.7c0.6,0.3,1.3,0.5,2,0.5l-0.1-0.1c0.2,0,0.5,0,0.7,0c2.1-0.4,3.5-2.2,3.5-4.2c0-0.2,0-0.5,0-0.7
	l-4.9-29.3l21.1-20.9c0.7-0.7,1.1-1.5,1.2-2.4c0-0.2,0-0.4,0-0.6C100,37.5,98.4,35.7,96.3,35.4z M70.1,59.1c-0.8,0.8-1.3,1.9-1.3,3
	c0,0.2,0,0.5,0.1,0.7l3.8,23.1L52,75.1c-0.6-0.3-1.3-0.5-2-0.5h0c0,0,0,0,0,0V16l0-0.1l10.5,20.9c0.6,1.2,1.8,2.1,3.2,2.3l23.1,3.5
	L70.1,59.1z"/>
</svg>
