<svg viewBox="0 0 100 100" xmlns="http://www.w3.org/2000/svg"><path d="M46.19 56.36v0c-.42 0-.83-.1-1.19-.28L29.5 48 14 56.08h-.001c-.85.42-1.86.35-2.62-.2h0c-.77-.56-1.16-1.5-1-2.43l2.87-17.27L.74 23.9h0c-.99-.97-1.01-2.55-.04-3.54 .38-.39.87-.65 1.41-.73l17.31-2.64 7.82-15.62 0 0c.62-1.24 2.13-1.74 3.37-1.11 .47.24.86.62 1.1 1.1l7.82 15.62 17.31 2.6v0c1.36.2 2.3 1.47 2.1 2.84 -.09.53-.34 1.03-.73 1.41L45.74 36.15l2.87 17.27v0c.22 1.36-.7 2.64-2.06 2.87 -.14.02-.27.03-.41.03ZM29.5 42.69v0c.4 0 .79.1 1.15.29l12.25 6.35 -2.26-13.61v0c-.14-.81.13-1.62.71-2.19l9.83-9.69 -13.64-2.05v0c-.81-.13-1.51-.63-1.87-1.36L29.5 8.09l-6.17 12.34h-.001c-.37.73-1.07 1.23-1.87 1.36L7.81 23.84l9.83 9.69h-.001c.57.57.84 1.38.71 2.19l-2.26 13.61L28.34 43h-.001c.35-.2.74-.31 1.15-.31Z" transform="translate(0 2.23728) scale(1.69491)"/></svg>