<svg viewBox="0 0 100 100" xmlns="http://www.w3.org/2000/svg"><g transform="scale(.19531)"><g><path d="M76 240c12.1 0 23.05-4.86 31.14-12.66l44.4 22.19c-.23 1.8-.56 3.58-.56 5.45 0 24.81 20.18 45 45 45 24.81 0 45-20.19 45-45 0-6.93-1.71-13.42-4.52-19.28l60.23-60.24c5.86 2.8 12.35 4.51 19.27 4.51 24.81 0 45-20.19 45-45 0-4.68-.92-9.09-2.25-13.33l52.33-39.25c7.14 4.76 15.69 7.57 24.91 7.57 24.81 0 45-20.19 45-45 0-24.82-20.19-45-45-45 -24.82 0-45 20.18-45 45 0 4.67.91 9.08 2.24 13.32l-52.34 39.24c-7.15-4.77-15.7-7.58-24.92-7.58 -24.82 0-45 20.18-45 45 0 6.92 1.7 13.41 4.51 19.27l-60.24 60.23c-5.87-2.81-12.36-4.52-19.28-4.52 -12.11 0-23.06 4.85-31.15 12.65l-44.41-22.2c.22-1.81.55-3.59.55-5.46 0-24.82-20.19-45-45-45 -24.82 0-45 20.18-45 45 0 24.81 20.18 45 45 45Z"/><path d="M497 482h-16V165c0-8.29-6.72-15-15-15h-60c-8.29 0-15 6.71-15 15v317h-30V255c0-8.29-6.72-15-15-15h-60c-8.29 0-15 6.71-15 15v227h-30V375c0-8.29-6.72-15-15-15h-60c-8.29 0-15 6.71-15 15v107h-30V315c0-8.29-6.72-15-15-15H46c-8.29 0-15 6.71-15 15v167H15c-8.29 0-15 6.71-15 15 0 8.28 6.71 15 15 15h482c8.28 0 15-6.72 15-15 0-8.29-6.72-15-15-15Z"/></g></g></svg>