<svg viewBox="0 0 100 100" xmlns="http://www.w3.org/2000/svg"><path d="M28.2 2.31l-.001 0c-7.13.02-14 2.67-19.29 7.44V3v0c0-1.66-1.35-3-3-3 -1.66 0-3 1.34-3 3v15.08 0c0 1.65 1.34 3 3 3h15.09v0c1.65 0 3-1.35 3-3 0-1.66-1.35-3-3-3h-9v0c8.88-8.96 23.34-9.03 32.3-.15 8.95 8.88 9.02 23.34.14 32.3 -4.3 4.33-10.15 6.76-16.25 6.75v0c-10.68.05-19.95-7.34-22.27-17.76H5.91c-.35-1.63-1.94-2.66-3.56-2.32 -1.63.34-2.66 1.93-2.32 3.55 0 .03.01.06.02.09H.05c3.54 15.53 19 25.25 34.53 21.71 15.53-3.55 25.25-19.01 21.71-34.54 -3-13.14-14.68-22.45-28.14-22.44Z" transform="translate(2.45833 0) scale(1.66666)"/></svg>