<svg viewBox="0 0 100 100" xmlns="http://www.w3.org/2000/svg"><g transform="translate(0 .08461) scale(1.69233)"><g><path d="M58.31 54.73l-54-54v0C3.31-.23 1.73-.2.77.79c-.94.97-.94 2.5 0 3.47l13.58 13.58 0 0C9.67 20.62 5.43 24.08 1.77 28.1H1.76c-2.38 2.55-2.38 6.5-.001 9.06 5.07 5.51 15.42 14.75 27.73 14.75v0c5.18-.11 10.25-1.56 14.71-4.2l10.56 10.55h0c.96.99 2.54 1.01 3.53.05 .99-.97 1.01-2.55.05-3.54 -.03-.03-.05-.05-.07-.07ZM29.51 39v0c-3.48-.01-6.3-2.84-6.29-6.32 0-1.58.59-3.1 1.66-4.26l8.9 8.9v0c-1.17 1.06-2.7 1.66-4.28 1.67Z"/><path d="M52.54 40.89v0c-.67-.01-1.3-.27-1.77-.73L28.26 17.64v0c-.98-.99-.97-2.57.01-3.54 .48-.48 1.13-.74 1.81-.73 12.15.28 22.3 9.44 27.27 14.87v0c2.3 2.48 2.3 6.31 0 8.8 -1 1.07-2 2.14-3.1 3.15v0c-.47.44-1.08.69-1.72.69Z"/></g></g></svg>