<svg viewBox="0 0 100 100" xmlns="http://www.w3.org/2000/svg"><g transform="scale(1.69491)"><g><path d="M54 23.8v0c1.16 1.12 3 1.12 4.17 0h0c1.12-1.17 1.12-3.01-.001-4.17v0C48.179 9.64 33.71 5.58 19.99 8.91L25.08 14v0c10.63-1.41 21.31 2.21 28.91 9.8Z"/><path d="M36.58 25.46v-.001c3.7 1.14 7.06 3.18 9.8 5.93v0c1.11 1.18 2.98 1.24 4.17.12 1.18-1.12 1.24-2.99.12-4.17 -.05-.05-.09-.09-.13-.13v0c-5.54-5.58-13.08-8.72-20.93-8.72Z"/><path d="M29.5 40h-.001c-2.21-.01-4.33.87-5.88 2.44h0c-.56.55-.87 1.3-.86 2.08v-.001c0 .78.31 1.53.86 2.09l3.8 3.79h-.001c1.16 1.12 3 1.12 4.17 0l3.79-3.79v0c1.12-1.17 1.12-3.01 0-4.17v0c-1.56-1.57-3.68-2.45-5.88-2.44Z"/><path d="M5 .86v0C3.59-.02 1.74.4.86 1.81c-.61.97-.61 2.21 0 3.18l8.24 8.24 -.001-.001c-3.01 1.76-5.78 3.91-8.24 6.39h0c-1.04 1.25-.86 3.11.4 4.15 1.08.88 2.63.89 3.72.01h0c2.47-2.48 5.31-4.56 8.41-6.18l3.6 3.6 -.001-.001c-3.2 1.47-6.11 3.5-8.6 6v0c-1.12 1.18-1.06 3.05.12 4.17 1.13 1.06 2.9 1.06 4.04 0h-.001c2.53-2.54 5.61-4.47 9-5.64l3.91 3.92v0c-3.6.74-6.9 2.53-9.49 5.13h-.001c-1.16 1.16-1.16 3.04 0 4.2 1.16 1.15 3.04 1.15 4.2-.01v-.001c2.84-2.85 6.85-4.23 10.85-3.74l22.94 22.88v0c1.39.88 3.25.47 4.14-.93 .62-.99.62-2.24 0-3.22Z"/></g></g></svg>