<svg viewBox="0 0 100 100" xmlns="http://www.w3.org/2000/svg"><g transform="translate(0 13.1949) scale(1.69491)"><g><path d="M56.05 16.88v-.001c-.78-.02-1.51-.34-2.05-.88v-.001C40.47 2.45 18.54 2.45 5.01 15.97c-.01 0-.01 0-.02.01v0c-1.4.89-3.25.49-4.15-.9 -.65-1-.65-2.28 0-3.27l0 0c15.82-15.8 41.45-15.8 57.28 0v0c1.1 1.23 1 3.12-.23 4.23 -.52.46-1.18.73-1.87.76Z"/><path d="M48.46 24.46v0c-.79 0-1.54-.31-2.08-.86h0c-9.33-9.32-24.44-9.32-33.76-.001v0c-1.19 1.11-3.06 1.05-4.17-.13 -1.07-1.14-1.07-2.91 0-4.05v-.001c11.62-11.63 30.47-11.63 42.1 0v0c1.13 1.17 1.1 3.03-.08 4.17 -.55.52-1.27.82-2.02.82Z"/><path d="M40.88 32.05v0c-.79 0-1.54-.32-2.09-.87v-.001c-5.14-5.12-13.45-5.12-18.58 0v0c-1.16 1.16-3.04 1.16-4.2.01 -1.17-1.16-1.17-3.04-.02-4.2v0c7.43-7.46 19.49-7.48 26.95-.05 .01.01.03.03.04.04v0c1.1 1.23 1 3.12-.23 4.23 -.52.45-1.17.72-1.86.76Z"/><path d="M29.5 43.43v0c-.79-.01-1.54-.32-2.09-.87l-3.79-3.79v0c-1.13-1.17-1.13-3.01 0-4.17v0c3.23-3.25 8.49-3.26 11.73-.03 0 0 .01.01.02.02v0c1.12 1.16 1.12 3 0 4.17l-3.79 3.79v0c-.56.55-1.31.86-2.09.87Z"/></g></g></svg>